<svg xmlns="http://www.w3.org/2000/svg" width="860.839111328125" height="576.7854614257812" viewBox="-404.84527587890625 -200.46176147460938 860.839111328125 576.7854614257812"><title>Neo4j Graph Visualization</title><desc>Created using Neo4j (http://www.neo4j.com/)</desc><g class="layer relationships"><g class="relationship" transform="translate(179.80965125916657 40.185376710150535) rotate(394.1412838837159)"><path class="outline" fill="#A5ABB6" stroke="none" d="M 25 0.5 L 134.15595141818508 0.5 L 134.15595141818508 -0.5 L 25 -0.5 Z M 157.49970141818508 0.5 L 266.65565283637017 0.5 L 266.65565283637017 3.5 L 273.65565283637017 0 L 266.65565283637017 -3.5 L 266.65565283637017 -0.5 L 157.49970141818508 -0.5 Z"/><text text-anchor="middle" pointer-events="none" font-size="8px" fill="#000000" x="145.82782641818508" y="3" font-family="sans-serif">LIKE</text></g><g class="relationship" transform="translate(179.80965125916657 40.185376710150535) rotate(308.7293454192769)"><path class="outline" fill="#A5ABB6" stroke="none" d="M 25 0.5 L 120.480227291038 0.5 L 120.480227291038 -0.5 L 25 -0.5 Z M 143.823977291038 0.5 L 239.304204582076 0.5 L 239.304204582076 3.5 L 246.304204582076 0 L 239.304204582076 -3.5 L 239.304204582076 -0.5 L 143.823977291038 -0.5 Z"/><text text-anchor="middle" pointer-events="none" font-size="8px" fill="#000000" x="132.152102291038" y="3" font-family="sans-serif">LIKE</text></g><g class="relationship" transform="translate(179.80965125916657 40.185376710150535) rotate(181.4769104624902)"><path class="outline" fill="#A5ABB6" stroke="none" d="M 25 0.5 L 140.67115295097156 0.5 L 140.67115295097156 -0.5 L 25 -0.5 Z M 174.67505920097156 0.5 L 290.3462121519431 0.5 L 290.3462121519431 3.5 L 297.3462121519431 0 L 290.3462121519431 -3.5 L 290.3462121519431 -0.5 L 174.67505920097156 -0.5 Z"/><text text-anchor="middle" pointer-events="none" font-size="8px" fill="#000000" x="157.67310607597156" y="3" transform="rotate(180 157.67310607597156 0)" font-family="sans-serif">ADDED</text></g><g class="relationship" transform="translate(-56.862703075599356 339.4235452023564) rotate(344.7822361998037)"><path class="outline" fill="#A5ABB6" stroke="none" d="M 24.018736134675446,-6.953439040707552 L 24.277555179777966,-5.987513214418485 A 873.3681445587541 873.3681445587541 0 0 1 229.77098730455597,-35.50499036648591 L 229.74745670385693,-36.504713483569276 A 874.3681445587541 874.3681445587541 0 0 0 24.018736134675446,-6.953439040707552 Z M 264.6633197659551,-36.62918833203503 L 264.6469176869478,-35.62932285518116 A 873.3681445587541 873.3681445587541 0 0 1 470.3455831641877,-7.577743136275027 L 469.58980662198996,-4.674503253271272 L 477.24577231489604,-6.298137851647628 L 471.3532852204513,-11.448729646946699 L 470.5975086782536,-8.545489763942944 A 874.3681445587541 874.3681445587541 0 0 0 264.6633197659551,-36.62918833203503"/><text text-anchor="middle" pointer-events="none" font-size="8px" fill="#000000" x="247.20654932799965" y="-33.24125806334723" font-family="sans-serif">UNLIKE</text></g><g class="relationship" transform="translate(-56.862703075599356 339.4235452023564) rotate(246.0407773525887)"><path class="outline" fill="#A5ABB6" stroke="none" d="M 25 0.5 L 79.3262792253792 0.5 L 79.3262792253792 -0.5 L 25 -0.5 Z M 113.3301854753792 0.5 L 167.6564647007584 0.5 L 167.6564647007584 3.5 L 174.6564647007584 0 L 167.6564647007584 -3.5 L 167.6564647007584 -0.5 L 113.3301854753792 -0.5 Z"/><text text-anchor="middle" pointer-events="none" font-size="8px" fill="#000000" x="96.3282323503792" y="3" transform="rotate(180 96.3282323503792 0)" font-family="sans-serif">ADDED</text></g><g class="relationship" transform="translate(-56.862703075599356 339.4235452023564) rotate(344.7822361998037)"><path class="outline" fill="#A5ABB6" stroke="none" d="M 24.018736134675446,6.953439040707552 L 24.277555179777966,5.987513214418485 A 873.3681445587541 873.3681445587541 0 0 0 223.56199135567306,35.336755512822265 L 223.5313515010041,36.33628600225518 A 874.3681445587541 874.3681445587541 0 0 1 24.018736134675446,6.953439040707552 Z M 270.8804678382907,36.50508532623542 L 270.8569553126014,35.505361783881995 A 873.3681445587541 873.3681445587541 0 0 0 470.3455831641877,7.577743136275027 L 469.58980662198996,4.674503253271272 L 477.24577231489604,6.298137851647628 L 471.3532852204513,11.448729646946699 L 470.5975086782536,8.545489763942944 A 874.3681445587541 874.3681445587541 0 0 1 270.8804678382907,36.50508532623542"/><text text-anchor="middle" pointer-events="none" font-size="8px" fill="#000000" x="247.20654932799962" y="39.24125806334723" font-family="sans-serif">COMMENT</text></g><g class="relationship" transform="translate(83.7971035030429 -48.20534540554637) rotate(520.5064125364862)"><path class="outline" fill="#A5ABB6" stroke="none" d="M 25 0.5 L 99.48937791646657 0.5 L 99.48937791646657 -0.5 L 25 -0.5 Z M 133.49328416646657 0.5 L 207.98266208293313 0.5 L 207.98266208293313 3.5 L 214.98266208293313 0 L 207.98266208293313 -3.5 L 207.98266208293313 -0.5 L 133.49328416646657 -0.5 Z"/><text text-anchor="middle" pointer-events="none" font-size="8px" fill="#000000" x="116.49133104146657" y="3" transform="rotate(180 116.49133104146657 0)" font-family="sans-serif">ADDED</text></g><g class="relationship" transform="translate(83.7971035030429 -48.20534540554637) rotate(189.46025708765558)"><path class="outline" fill="#A5ABB6" stroke="none" d="M 25 0.5 L 89.73162634042251 0.5 L 89.73162634042251 -0.5 L 25 -0.5 Z M 123.73553259042251 0.5 L 188.46715893084502 0.5 L 188.46715893084502 3.5 L 195.46715893084502 0 L 188.46715893084502 -3.5 L 188.46715893084502 -0.5 L 123.73553259042251 -0.5 Z"/><text text-anchor="middle" pointer-events="none" font-size="8px" fill="#000000" x="106.73357946542251" y="3" transform="rotate(180 106.73357946542251 0)" font-family="sans-serif">ADDED</text></g><g class="relationship" transform="translate(426.99384116698184 207.80153115457028) rotate(197.1686260136363)"><path class="outline" fill="#A5ABB6" stroke="none" d="M 25 0.5 L 262.4529430563988 0.5 L 262.4529430563988 -0.5 L 25 -0.5 Z M 326.5271618063988 0.5 L 563.9801048627976 0.5 L 563.9801048627976 3.5 L 570.9801048627976 0 L 563.9801048627976 -3.5 L 563.9801048627976 -0.5 L 326.5271618063988 -0.5 Z"/><text text-anchor="middle" pointer-events="none" font-size="8px" fill="#000000" x="294.4900524313988" y="3" transform="rotate(180 294.4900524313988 0)" font-family="sans-serif">TAGGED_WITH</text></g><g class="relationship" transform="translate(426.99384116698184 207.80153115457028) rotate(185.14144696112527)"><path class="outline" fill="#A5ABB6" stroke="none" d="M 25 0.5 L 248.07114514589085 0.5 L 248.07114514589085 -0.5 L 25 -0.5 Z M 312.14536389589085 0.5 L 535.2165090417817 0.5 L 535.2165090417817 3.5 L 542.2165090417817 0 L 535.2165090417817 -3.5 L 535.2165090417817 -0.5 L 312.14536389589085 -0.5 Z"/><text text-anchor="middle" pointer-events="none" font-size="8px" fill="#000000" x="280.10825452089085" y="3" transform="rotate(180 280.10825452089085 0)" font-family="sans-serif">TAGGED_WITH</text></g><g class="relationship" transform="translate(349.5490352686948 -171.46176581716745) rotate(529.7914376164156)"><path class="outline" fill="#A5ABB6" stroke="none" d="M 25 0.5 L 209.95966943340375 0.5 L 209.95966943340375 -0.5 L 25 -0.5 Z M 274.03388818340375 0.5 L 458.9935576168075 0.5 L 458.9935576168075 3.5 L 465.9935576168075 0 L 458.9935576168075 -3.5 L 458.9935576168075 -0.5 L 274.03388818340375 -0.5 Z"/><text text-anchor="middle" pointer-events="none" font-size="8px" fill="#000000" x="241.99677880840375" y="3" transform="rotate(180 241.99677880840375 0)" font-family="sans-serif">TAGGED_WITH</text></g><g class="relationship" transform="translate(-142.4294751637967 31.877194546102956) rotate(503.42068001423274)"><path class="outline" fill="#A5ABB6" stroke="none" d="M 25 0.5 L 106.73022036792068 0.5 L 106.73022036792068 -0.5 L 25 -0.5 Z M 148.74975161792068 0.5 L 230.47997198584136 0.5 L 230.47997198584136 3.5 L 237.47997198584136 0 L 230.47997198584136 -3.5 L 230.47997198584136 -0.5 L 148.74975161792068 -0.5 Z"/><text text-anchor="middle" pointer-events="none" font-size="8px" fill="#000000" x="127.73998599292068" y="3" transform="rotate(180 127.73998599292068 0)" font-family="sans-serif">LABELED</text></g><g class="relationship" transform="translate(-137.94047220779836 156.97053961091373) rotate(214.9337264064859)"><path class="outline" fill="#A5ABB6" stroke="none" d="M 25 0.5 L 120.58688780770478 0.5 L 120.58688780770478 -0.5 L 25 -0.5 Z M 162.60641905770478 0.5 L 258.19330686540957 0.5 L 258.19330686540957 3.5 L 265.19330686540957 0 L 258.19330686540957 -3.5 L 258.19330686540957 -0.5 L 162.60641905770478 -0.5 Z"/><text text-anchor="middle" pointer-events="none" font-size="8px" fill="#000000" x="141.59665343270478" y="3" transform="rotate(180 141.59665343270478 0)" font-family="sans-serif">LABELED</text></g><g class="relationship" transform="translate(-133.67166869836694 -84.44208483184937) rotate(522.7407762847415)"><path class="outline" fill="#A5ABB6" stroke="none" d="M 25 0.5 L 102.28639442037075 0.5 L 102.28639442037075 -0.5 L 25 -0.5 Z M 144.30592567037075 0.5 L 221.5923200907415 0.5 L 221.5923200907415 3.5 L 228.5923200907415 0 L 221.5923200907415 -3.5 L 221.5923200907415 -0.5 L 144.30592567037075 -0.5 Z"/><text text-anchor="middle" pointer-events="none" font-size="8px" fill="#000000" x="123.29616004537075" y="3" transform="rotate(180 123.29616004537075 0)" font-family="sans-serif">LABELED</text></g></g><g class="layer nodes"><g class="node" transform="translate(179.80965125916657,40.185376710150535)"><circle class="outline" cx="0" cy="0" r="25" fill="#D9C8AE" stroke="#c0a378" stroke-width="2px"/><text text-anchor="middle" pointer-events="none" font-family="sans-serif" dy="1.5625" font-size="25" fill="#604A0E"/><text text-anchor="middle" pointer-events="none" y="5" font-size="10px" fill="#604A0E" font-family="sans-serif"> @user1</text></g><g class="node" transform="translate(-56.862703075599356,339.4235452023564)"><circle class="outline" cx="0" cy="0" r="25" fill="#D9C8AE" stroke="#c0a378" stroke-width="2px"/><text text-anchor="middle" pointer-events="none" font-family="sans-serif" dy="1.5625" font-size="25" fill="#604A0E"/><text text-anchor="middle" pointer-events="none" y="5" font-size="10px" fill="#604A0E" font-family="sans-serif"> @user2</text></g><g class="node" transform="translate(83.7971035030429,-48.20534540554637)"><circle class="outline" cx="0" cy="0" r="25" fill="#D9C8AE" stroke="#c0a378" stroke-width="2px"/><text text-anchor="middle" pointer-events="none" font-family="sans-serif" dy="1.5625" font-size="25" fill="#604A0E"/><text text-anchor="middle" pointer-events="none" y="5" font-size="10px" fill="#604A0E" font-family="sans-serif"> @user3</text></g><g class="node" transform="translate(426.99384116698184,207.80153115457028)"><circle class="outline" cx="0" cy="0" r="25" fill="#8DCC93" stroke="#5db665" stroke-width="2px"/><text text-anchor="middle" pointer-events="none" font-family="sans-serif" dy="1.5625" font-size="25" fill="#604A0E"/><text text-anchor="middle" pointer-events="none" y="5" font-size="10px" fill="#604A0E" font-family="sans-serif"> https://...1</text></g><g class="node" transform="translate(349.5490352686948,-171.46176581716745)"><circle class="outline" cx="0" cy="0" r="25" fill="#8DCC93" stroke="#5db665" stroke-width="2px"/><text text-anchor="middle" pointer-events="none" font-family="sans-serif" dy="1.5625" font-size="25" fill="#604A0E"/><text text-anchor="middle" pointer-events="none" y="5" font-size="10px" fill="#604A0E" font-family="sans-serif"> https://...2</text></g><g class="node" transform="translate(-142.4294751637967,31.877194546102956)"><circle class="outline" cx="0" cy="0" r="25" fill="#ECB5C9" stroke="#da7298" stroke-width="2px"/><text text-anchor="middle" pointer-events="none" font-family="sans-serif" dy="1.5625" font-size="25" fill="#604A0E"/><text text-anchor="middle" pointer-events="none" y="5" font-size="10px" fill="#604A0E" font-family="sans-serif"> 110</text></g><g class="node" transform="translate(-137.94047220779836,156.97053961091373)"><circle class="outline" cx="0" cy="0" r="25" fill="#ECB5C9" stroke="#da7298" stroke-width="2px"/><text text-anchor="middle" pointer-events="none" font-family="sans-serif" dy="1.5625" font-size="25" fill="#604A0E"/><text text-anchor="middle" pointer-events="none" y="5" font-size="10px" fill="#604A0E" font-family="sans-serif"> 111</text></g><g class="node" transform="translate(-133.67166869836694,-84.44208483184937)"><circle class="outline" cx="0" cy="0" r="25" fill="#ECB5C9" stroke="#da7298" stroke-width="2px"/><text text-anchor="middle" pointer-events="none" font-family="sans-serif" dy="1.5625" font-size="25" fill="#604A0E"/><text text-anchor="middle" pointer-events="none" y="5" font-size="10px" fill="#604A0E" font-family="sans-serif"> 112</text></g><g class="node" transform="translate(-353.20945500760854,188.29821548232604)"><circle class="outline" cx="0" cy="0" r="25" fill="#4C8EDA" stroke="#2870c2" stroke-width="2px"/><text text-anchor="middle" pointer-events="none" font-family="sans-serif" dy="1.5625" font-size="25" fill="#FFFFFF"/><text text-anchor="middle" pointer-events="none" y="5" font-size="10px" fill="#FFFFFF" font-family="sans-serif"> label1</text></g><g class="node" transform="translate(-375.84528288892085,-9.2024317299786)"><circle class="outline" cx="0" cy="0" r="25" fill="#4C8EDA" stroke="#2870c2" stroke-width="2px"/><text text-anchor="middle" pointer-events="none" font-family="sans-serif" dy="1.5625" font-size="25" fill="#FFFFFF"/><text text-anchor="middle" pointer-events="none" y="5" font-size="10px" fill="#FFFFFF" font-family="sans-serif"> label2</text></g></g></svg>