<svg xmlns="http://www.w3.org/2000/svg" width="548.8759765625" height="229.69662475585938" viewBox="-82.3947982788086 -38.48357391357422 548.8759765625 229.69662475585938"><title>Neo4j Graph Visualization</title><desc>Created using Neo4j (http://www.neo4j.com/)</desc><g class="layer relationships"><g class="relationship" transform="translate(132.16368138686738 162.2130570150641) rotate(317.9097263017971)"><path class="outline" fill="#A5ABB6" stroke="none" d="M 25 0.5 L 53.11814000236477 0.5 L 53.11814000236477 -0.5 L 25 -0.5 Z M 76.46189000236477 0.5 L 104.58003000472954 0.5 L 104.58003000472954 3.5 L 111.58003000472954 0 L 104.58003000472954 -3.5 L 104.58003000472954 -0.5 L 76.46189000236477 -0.5 Z"/><text text-anchor="middle" pointer-events="none" font-size="8px" fill="#000000" x="64.79001500236477" y="3" font-family="sans-serif">LIKE</text></g><g class="relationship" transform="translate(132.16368138686738 162.2130570150641) rotate(200.2415455161065)"><path class="outline" fill="#A5ABB6" stroke="none" d="M 25 0.5 L 83.71434027910853 0.5 L 83.71434027910853 -0.5 L 25 -0.5 Z M 107.05809027910853 0.5 L 165.77243055821705 0.5 L 165.77243055821705 3.5 L 172.77243055821705 0 L 165.77243055821705 -3.5 L 165.77243055821705 -0.5 L 107.05809027910853 -0.5 Z"/><text text-anchor="middle" pointer-events="none" font-size="8px" fill="#000000" x="95.38621527910853" y="3" transform="rotate(180 95.38621527910853 0)" font-family="sans-serif">LIKE</text></g><g class="relationship" transform="translate(437.4811697343663 28.8359680653206) rotate(528.4108250918938)"><path class="outline" fill="#A5ABB6" stroke="none" d="M 21.40063509461097,-12.933012701892217 L 21.90063509461097,-12.06698729810778 A 162.489916773262 162.489916773262 0 0 1 88.87397309197544,-33.20855092488489 L 88.78614228577729,-34.20468633208742 A 163.489916773262 163.489916773262 0 0 0 21.40063509461097,-12.933012701892217 Z M 112.17837504935996,-34.586787983970225 L 112.12312527159754,-33.58831541947123 A 162.489916773262 162.489916773262 0 0 1 179.75122519390092,-14.645406033813625 L 178.33687961663867,-11.999725291910199 L 186.1602045212193,-11.78621314385224 L 181.6370192969173,-18.172980356351527 L 180.22267371965503,-15.5272996144481 A 163.489916773262 163.489916773262 0 0 0 112.17837504935996,-34.586787983970225"/><text text-anchor="middle" pointer-events="none" font-size="8px" fill="#000000" x="100.48358125684109" y="-31.31476834787111" transform="rotate(180 100.48358125684109 -34.31476834787111)" font-family="sans-serif">LIKE</text></g><g class="relationship" transform="translate(437.4811697343663 28.8359680653206) rotate(528.4108250918938)"><path class="outline" fill="#A5ABB6" stroke="none" d="M 25 0.5 L 76.93970951854061 0.5 L 76.93970951854061 -0.5 L 25 -0.5 Z M 124.26783451854061 0.5 L 176.20754403708122 0.5 L 176.20754403708122 3.5 L 183.20754403708122 0 L 176.20754403708122 -3.5 L 176.20754403708122 -0.5 L 124.26783451854061 -0.5 Z"/><text text-anchor="middle" pointer-events="none" font-size="8px" fill="#000000" x="100.60377201854061" y="3" transform="rotate(180 100.60377201854061 0)" font-family="sans-serif">COMMENT</text></g><g class="relationship" transform="translate(233.51830657759297 70.66337351730232) rotate(217.77643077873824)"><path class="outline" fill="#A5ABB6" stroke="none" d="M 25 0.5 L 34.76302865199321 0.5 L 34.76302865199321 -0.5 L 25 -0.5 Z M 89.07162240199321 0.5 L 98.83465105398642 0.5 L 98.83465105398642 3.5 L 105.83465105398642 0 L 98.83465105398642 -3.5 L 98.83465105398642 -0.5 L 89.07162240199321 -0.5 Z"/><text text-anchor="middle" pointer-events="none" font-size="8px" fill="#000000" x="61.91732552699321" y="3" transform="rotate(180 61.91732552699321 0)" font-family="sans-serif">TAGGED_BY</text></g><g class="relationship" transform="translate(233.51830657759297 70.66337351730232) rotate(348.4108250918938)"><path class="outline" fill="#A5ABB6" stroke="none" d="M 21.40063509461097,-12.933012701892217 L 21.90063509461097,-12.06698729810778 A 162.489916773262 162.489916773262 0 0 1 73.58614647438753,-31.125226335795645 L 73.40423089713912,-32.10854048842151 A 163.489916773262 163.489916773262 0 0 0 21.40063509461097,-12.933012701892217 Z M 127.6205412397813,-32.99413965077105 L 127.47083813734176,-32.00540865544423 A 162.489916773262 162.489916773262 0 0 1 179.75122519390092,-14.645406033813625 L 178.33687961663867,-11.999725291910199 L 186.1602045212193,-11.78621314385224 L 181.6370192969173,-18.172980356351527 L 180.22267371965503,-15.5272996144481 A 163.489916773262 163.489916773262 0 0 0 127.6205412397813,-32.99413965077105"/><text text-anchor="middle" pointer-events="none" font-size="8px" fill="#000000" x="100.48358125684109" y="-31.31476834787111" font-family="sans-serif">TAGGED_BY</text></g><g class="relationship" transform="translate(-53.394798167816965 93.78802538000687) rotate(330.62977558403367)"><path class="outline" fill="#A5ABB6" stroke="none" d="M 25 0.5 L 74.62799771076644 0.5 L 74.62799771076644 -0.5 L 25 -0.5 Z M 128.93659146076644 0.5 L 178.56458917153287 0.5 L 178.56458917153287 3.5 L 185.56458917153287 0 L 178.56458917153287 -3.5 L 178.56458917153287 -0.5 L 128.93659146076644 -0.5 Z"/><text text-anchor="middle" pointer-events="none" font-size="8px" fill="#000000" x="101.78229458576644" y="3" font-family="sans-serif">TAGGED_BY</text></g></g><g class="layer nodes"><g class="node" transform="translate(132.16368138686738,162.2130570150641)"><circle class="outline" cx="0" cy="0" r="25" fill="#D9C8AE" stroke="#c0a378" stroke-width="2px"/><text text-anchor="middle" pointer-events="none" font-family="sans-serif" dy="1.5625" font-size="25" fill="#604A0E"/><text text-anchor="middle" pointer-events="none" y="5" font-size="10px" fill="#604A0E" font-family="sans-serif"> @user1</text></g><g class="node" transform="translate(437.4811697343663,28.8359680653206)"><circle class="outline" cx="0" cy="0" r="25" fill="#D9C8AE" stroke="#c0a378" stroke-width="2px"/><text text-anchor="middle" pointer-events="none" font-family="sans-serif" dy="1.5625" font-size="25" fill="#604A0E"/><text text-anchor="middle" pointer-events="none" y="5" font-size="10px" fill="#604A0E" font-family="sans-serif"> @user2</text></g><g class="node" transform="translate(130.1056732167686,-9.48357388431807)"><circle class="outline" cx="0" cy="0" r="25" fill="#D9C8AE" stroke="#c0a378" stroke-width="2px"/><text text-anchor="middle" pointer-events="none" font-family="sans-serif" dy="1.5625" font-size="25" fill="#604A0E"/><text text-anchor="middle" pointer-events="none" y="5" font-size="10px" fill="#604A0E" font-family="sans-serif"> @user3</text></g><g class="node" transform="translate(233.51830657759297,70.66337351730232)"><circle class="outline" cx="0" cy="0" r="25" fill="#8DCC93" stroke="#5db665" stroke-width="2px"/><text text-anchor="middle" pointer-events="none" font-family="sans-serif" dy="1.5625" font-size="25" fill="#604A0E"/><text text-anchor="middle" pointer-events="none" y="5" font-size="10px" fill="#604A0E" font-family="sans-serif"> https://...1</text></g><g class="node" transform="translate(-53.394798167816965,93.78802538000687)"><circle class="outline" cx="0" cy="0" r="25" fill="#8DCC93" stroke="#5db665" stroke-width="2px"/><text text-anchor="middle" pointer-events="none" font-family="sans-serif" dy="1.5625" font-size="25" fill="#604A0E"/><text text-anchor="middle" pointer-events="none" y="5" font-size="10px" fill="#604A0E" font-family="sans-serif"> https://...2</text></g></g></svg>