<svg xmlns="http://www.w3.org/2000/svg" width="913.9539794921875" height="619.4212646484375" viewBox="-338.8818054199219 -228.8896942138672 913.9539794921875 619.4212646484375"><title>Neo4j Graph Visualization</title><desc>Created using Neo4j (http://www.neo4j.com/)</desc><g class="layer relationships"><g class="relationship" transform="translate(546.0721558360875 122.74954818612082) rotate(188.88749243565672)"><path class="outline" fill="#A5ABB6" stroke="none" d="M 25 0.5 L 247.29107477476896 0.5 L 247.29107477476896 -0.5 L 25 -0.5 Z M 286.5077419500619 0.5 L 508.7988167248309 0.5 L 508.7988167248309 3.5 L 515.7988167248309 0 L 508.7988167248309 -3.5 L 508.7988167248309 -0.5 L 286.5077419500619 -0.5 Z"/><text text-anchor="middle" pointer-events="none" font-size="8px" fill="#000000" x="266.89940836241544" y="3" transform="rotate(180 266.89940836241544 0)" font-family="sans-serif">TAGGED</text></g><g class="relationship" transform="translate(546.0721558360875 122.74954818612082) rotate(232.82586215613452)"><path class="outline" fill="#A5ABB6" stroke="none" d="M 21.40063509461097,-12.933012701892217 L 21.90063509461097,-12.06698729810778 A 360.1306860192967 360.1306860192967 0 0 1 179.33287135302325,-59.603436280365884 L 179.27002442653273,-60.60145945836865 A 361.1306860192967 361.1306860192967 0 0 0 21.40063509461097,-12.933012701892217 Z M 218.52029365622812,-60.93572414920675 L 218.47445342111976,-59.9367753653118 A 360.1306860192967 360.1306860192967 0 0 1 376.6934602152932,-15.088487948370364 L 375.23792624753514,-12.465241702075051 L 383.056957117942,-12.129449731317415 L 378.63417217230403,-18.586149610097447 L 377.17863820454596,-15.962903363802134 A 361.1306860192967 361.1306860192967 0 0 0 218.52029365622812,-60.93572414920675"/><text text-anchor="middle" pointer-events="none" font-size="8px" fill="#000000" x="198.89487219877412" y="-57.80227364285861" transform="rotate(180 198.89487219877412 -60.80227364285861)" font-family="sans-serif">TAGGED</text></g><g class="relationship" transform="translate(546.0721558360875 122.74954818612082) rotate(516.9099839501594)"><path class="outline" fill="#A5ABB6" stroke="none" d="M 24.018736134675446,-6.953439040707552 L 24.277555179777966,-5.987513214418485 A 983.8684521515676 983.8684521515676 0 0 1 256.1720117550864,-39.24897138434335 L 256.14888931766365,-40.24870402504666 A 984.8684521515676 984.8684521515676 0 0 0 24.018736134675446,-6.953439040707552 Z M 295.38267996192457,-40.37444046952078 L 295.3659658195903,-39.374580160554615 A 983.8684521515676 983.8684521515676 0 0 1 527.4688494271268,-7.60014057440816 L 526.7109816438532,-4.697445891346241 L 534.3681149848169,-6.315564860613371 L 528.4793398048249,-11.470400151824052 L 527.7214720215513,-8.567705468762133 A 984.8684521515676 984.8684521515676 0 0 0 295.38267996192457,-40.37444046952078"/><text text-anchor="middle" pointer-events="none" font-size="8px" fill="#000000" x="275.76676085239933" y="-37.006962703587305" transform="rotate(180 275.76676085239933 -40.006962703587305)" font-family="sans-serif">TAGGED</text></g><g class="relationship" transform="translate(546.0721558360875 122.74954818612082) rotate(232.82586215613452)"><path class="outline" fill="#A5ABB6" stroke="none" d="M 25 0.5 L 169.55033842716122 0.5 L 169.55033842716122 -0.5 L 25 -0.5 Z M 228.36700407657528 0.5 L 372.9173425037365 0.5 L 372.9173425037365 3.5 L 379.9173425037365 0 L 372.9173425037365 -3.5 L 372.9173425037365 -0.5 L 228.36700407657528 -0.5 Z"/><text text-anchor="middle" pointer-events="none" font-size="8px" fill="#000000" x="198.95867125186825" y="3" transform="rotate(180 198.95867125186825 0)" font-family="sans-serif">COMMENTED</text></g><g class="relationship" transform="translate(546.0721558360875 122.74954818612082) rotate(516.9099839501594)"><path class="outline" fill="#A5ABB6" stroke="none" d="M 24.018736134675446,6.953439040707552 L 24.277555179777966,5.987513214418485 A 983.8684521515676 983.8684521515676 0 0 0 261.1350974657217,39.35123400408668 L 261.11701948896825,40.35107058411188 A 984.8684521515676 984.8684521515676 0 0 1 24.018736134675446,6.953439040707552 Z M 290.41399572041894,40.444961527726946 L 290.40232660133694,39.445029614214945 A 983.8684521515676 983.8684521515676 0 0 0 527.4688494271268,7.60014057440816 L 526.7109816438532,4.697445891346241 L 534.3681149848169,6.315564860613371 L 528.4793398048249,11.470400151824052 L 527.7214720215513,8.567705468762133 A 984.8684521515676 984.8684521515676 0 0 1 290.41399572041894,40.444961527726946"/><text text-anchor="middle" pointer-events="none" font-size="8px" fill="#000000" x="275.7667608523996" y="43.006962703587305" transform="rotate(180 275.7667608523996 40.006962703587305)" font-family="sans-serif">LIKED</text></g><g class="relationship" transform="translate(546.0721558360875 122.74954818612082) rotate(232.82586215613452)"><path class="outline" fill="#A5ABB6" stroke="none" d="M 21.40063509461097,12.933012701892217 L 21.90063509461097,12.06698729810778 A 360.1306860192967 360.1306860192967 0 0 0 184.28483776812547,59.88104800384673 L 184.2357413122484,60.879842045689315 A 361.1306860192967 361.1306860192967 0 0 1 21.40063509461097,12.933012701892217 Z M 213.55055580708375,61.12949402506172 L 213.51847717696091,60.13000867675021 A 360.1306860192967 360.1306860192967 0 0 0 376.6934602152932,15.088487948370364 L 375.23792624753514,12.465241702075051 L 383.056957117942,12.129449731317415 L 378.63417217230403,18.586149610097447 L 377.17863820454596,15.962903363802134 A 361.1306860192967 361.1306860192967 0 0 1 213.55055580708375,61.12949402506172"/><text text-anchor="middle" pointer-events="none" font-size="8px" fill="#000000" x="198.894872198774" y="63.80227364285861" transform="rotate(180 198.894872198774 60.80227364285861)" font-family="sans-serif">LIKED</text></g><g class="relationship" transform="translate(-309.8818116957701 -64.48129917960085) rotate(377.8662415168622)"><path class="outline" fill="#A5ABB6" stroke="none" d="M 21.40063509461097,-12.933012701892217 L 21.90063509461097,-12.06698729810778 A 292.9635649690341 292.9635649690341 0 0 1 145.84920450174937,-50.44880920487941 L 145.77228977319,-51.44584687945877 A 293.9635649690341 293.9635649690341 0 0 0 21.40063509461097,-12.933012701892217 Z M 185.02451867410042,-51.845206575315615 L 184.96790587211345,-50.84681036606236 A 292.9635649690341 292.9635649690341 0 0 1 309.67174424742296,-14.994825687050977 L 308.2249159360263,-12.366767879973443 L 316.04501718250333,-12.056902594971767 L 311.6008486626185,-18.49890276315436 L 310.15402035122185,-15.870844956076823 A 293.9635649690341 293.9635649690341 0 0 0 185.02451867410042,-51.845206575315615"/><text text-anchor="middle" pointer-events="none" font-size="8px" fill="#000000" x="165.39681757624453" y="-48.801474980559135" font-family="sans-serif">TAGGED</text></g><g class="relationship" transform="translate(-309.8818116957701 -64.48129917960085) rotate(377.8662415168622)"><path class="outline" fill="#A5ABB6" stroke="none" d="M 25 0.5 L 145.86441586642812 0.5 L 145.86441586642812 -0.5 L 25 -0.5 Z M 185.0810830417211 0.5 L 305.9454989081492 0.5 L 305.9454989081492 3.5 L 312.9454989081492 0 L 305.9454989081492 -3.5 L 305.9454989081492 -0.5 L 185.0810830417211 -0.5 Z"/><text text-anchor="middle" pointer-events="none" font-size="8px" fill="#000000" x="165.4727494540746" y="3" font-family="sans-serif">TAGGED</text></g><g class="relationship" transform="translate(-309.8818116957701 -64.48129917960085) rotate(347.50988519756413)"><path class="outline" fill="#A5ABB6" stroke="none" d="M 25 0.5 L 289.944026095785 0.5 L 289.944026095785 -0.5 L 25 -0.5 Z M 329.16069327107795 0.5 L 594.1047193668629 0.5 L 594.1047193668629 3.5 L 601.1047193668629 0 L 594.1047193668629 -3.5 L 594.1047193668629 -0.5 L 329.16069327107795 -0.5 Z"/><text text-anchor="middle" pointer-events="none" font-size="8px" fill="#000000" x="309.55235968343146" y="3" font-family="sans-serif">TAGGED</text></g><g class="relationship" transform="translate(-309.8818116957701 -64.48129917960085) rotate(377.8662415168622)"><path class="outline" fill="#A5ABB6" stroke="none" d="M 21.40063509461097,12.933012701892217 L 21.90063509461097,12.06698729810778 A 292.9635649690341 292.9635649690341 0 0 0 150.79571275473364,50.788318192537645 L 150.7356824065016,51.78651474497167 A 293.9635649690341 293.9635649690341 0 0 1 21.40063509461097,12.933012701892217 Z M 180.0552221746568,52.08481735892076 L 180.01551383666342,51.085606045987504 A 292.9635649690341 292.9635649690341 0 0 0 309.67174424742296,14.994825687050977 L 308.2249159360263,12.366767879973443 L 316.04501718250333,12.056902594971767 L 311.6008486626185,18.49890276315436 L 310.15402035122185,15.870844956076823 A 293.9635649690341 293.9635649690341 0 0 1 180.0552221746568,52.08481735892076"/><text text-anchor="middle" pointer-events="none" font-size="8px" fill="#000000" x="165.39681757624467" y="54.801474980559135" font-family="sans-serif">LIKED</text></g><g class="relationship" transform="translate(-309.8818116957701 -64.48129917960085) rotate(409.8983585366562)"><path class="outline" fill="#A5ABB6" stroke="none" d="M 25 0.5 L 247.43715972215722 0.5 L 247.43715972215722 -0.5 L 25 -0.5 Z M 276.72049254686425 0.5 L 499.15765226902147 0.5 L 499.15765226902147 3.5 L 506.15765226902147 0 L 499.15765226902147 -3.5 L 499.15765226902147 -0.5 L 276.72049254686425 -0.5 Z"/><text text-anchor="middle" pointer-events="none" font-size="8px" fill="#000000" x="262.07882613451073" y="3" font-family="sans-serif">LIKED</text></g><g class="relationship" transform="translate(-309.51897233435005 317.1674182587434) rotate(319.1344214092734)"><path class="outline" fill="#A5ABB6" stroke="none" d="M 25 0.5 L 194.27933250954655 0.5 L 194.27933250954655 -0.5 L 25 -0.5 Z M 223.56266533425358 0.5 L 392.84199784380013 0.5 L 392.84199784380013 3.5 L 399.84199784380013 0 L 392.84199784380013 -3.5 L 392.84199784380013 -0.5 L 223.56266533425358 -0.5 Z"/><text text-anchor="middle" pointer-events="none" font-size="8px" fill="#000000" x="208.92099892190006" y="3" font-family="sans-serif">LIKED</text></g><g class="relationship" transform="translate(-309.51897233435005 317.1674182587434) rotate(364.1227220362339)"><path class="outline" fill="#A5ABB6" stroke="none" d="M 21.40063509461097,-12.933012701892217 L 21.90063509461097,-12.06698729810778 A 297.70102969212417 297.70102969212417 0 0 1 138.4679753847989,-50.195766539212116 L 138.35953378958757,-51.189869361071146 A 298.70102969212417 298.70102969212417 0 0 0 21.40063509461097,-12.933012701892217 Z M 197.17640367726528,-51.780181949629025 L 197.08793644377826,-50.78410286210675 A 297.70102969212417 297.70102969212417 0 0 1 314.3970734703577,-15.002613250513678 L 312.949521303559,-12.374954078475522 L 320.76953689957986,-12.062934723322947 L 316.3271430260894,-18.506158813231217 L 314.87959085929066,-15.878499641193061 A 298.70102969212417 298.70102969212417 0 0 0 197.17640367726528,-51.780181949629025"/><text text-anchor="middle" pointer-events="none" font-size="8px" fill="#000000" x="167.75842086682044" y="-49.43634473401215" font-family="sans-serif">COMMENTED</text></g><g class="relationship" transform="translate(-309.51897233435005 317.1674182587434) rotate(364.1227220362339)"><path class="outline" fill="#A5ABB6" stroke="none" d="M 25 0.5 L 153.19168192092874 0.5 L 153.19168192092874 -0.5 L 25 -0.5 Z M 182.47501474563578 0.5 L 310.6666966665645 0.5 L 310.6666966665645 3.5 L 317.6666966665645 0 L 310.6666966665645 -3.5 L 310.6666966665645 -0.5 L 182.47501474563578 -0.5 Z"/><text text-anchor="middle" pointer-events="none" font-size="8px" fill="#000000" x="167.83334833328226" y="3" font-family="sans-serif">LIKED</text></g><g class="relationship" transform="translate(-309.51897233435005 317.1674182587434) rotate(364.1227220362339)"><path class="outline" fill="#A5ABB6" stroke="none" d="M 21.40063509461097,12.933012701892217 L 21.90063509461097,12.06698729810778 A 297.70102969212417 297.70102969212417 0 0 0 148.20952846116637,51.096721377768745 L 148.13380947053065,52.09385057424083 A 298.70102969212417 298.70102969212417 0 0 1 21.40063509461097,12.933012701892217 Z M 187.38595323276465,52.48780276236272 L 187.33026275419738,51.48935468129042 A 297.70102969212417 297.70102969212417 0 0 0 314.3970734703577,15.002613250513678 L 312.949521303559,12.374954078475522 L 320.76953689957986,12.062934723322947 L 316.3271430260894,18.506158813231217 L 314.87959085929066,15.878499641193061 A 298.70102969212417 298.70102969212417 0 0 1 187.38595323276465,52.48780276236272"/><text text-anchor="middle" pointer-events="none" font-size="8px" fill="#000000" x="167.7584208668205" y="55.43634473401215" font-family="sans-serif">TAGGED</text></g></g><g class="layer nodes"><g class="node" transform="translate(546.0721558360875,122.74954818612082)"><circle class="outline" cx="0" cy="0" r="25" fill="#F16667" stroke="#eb2728" stroke-width="2px"/><text text-anchor="middle" pointer-events="none" font-family="sans-serif" dy="1.5625" font-size="25" fill="#FFFFFF"/><text text-anchor="middle" pointer-events="none" y="5" font-size="10px" fill="#FFFFFF" font-family="sans-serif"> user1</text></g><g class="node" transform="translate(-309.8818116957701,-64.48129917960085)"><circle class="outline" cx="0" cy="0" r="25" fill="#F16667" stroke="#eb2728" stroke-width="2px"/><text text-anchor="middle" pointer-events="none" font-family="sans-serif" dy="1.5625" font-size="25" fill="#FFFFFF"/><text text-anchor="middle" pointer-events="none" y="5" font-size="10px" fill="#FFFFFF" font-family="sans-serif"> user2</text></g><g class="node" transform="translate(-309.51897233435005,317.1674182587434)"><circle class="outline" cx="0" cy="0" r="25" fill="#F16667" stroke="#eb2728" stroke-width="2px"/><text text-anchor="middle" pointer-events="none" font-family="sans-serif" dy="1.5625" font-size="25" fill="#FFFFFF"/><text text-anchor="middle" pointer-events="none" y="5" font-size="10px" fill="#FFFFFF" font-family="sans-serif"> user3</text></g><g class="node" transform="translate(301.4050968679481,-199.88970007138616)"><circle class="outline" cx="0" cy="0" r="25" fill="#D9C8AE" stroke="#c0a378" stroke-width="2px"/><text text-anchor="middle" pointer-events="none" font-family="sans-serif" dy="1.5625" font-size="25" fill="#604A0E"/><text text-anchor="middle" pointer-events="none" y="5" font-size="10px" fill="#604A0E" font-family="sans-serif"> http://s…</text></g><g class="node" transform="translate(32.26102300713018,341.8027544397881)"><circle class="outline" cx="0" cy="0" r="25" fill="#D9C8AE" stroke="#c0a378" stroke-width="2px"/><text text-anchor="middle" pointer-events="none" font-family="sans-serif" dy="1.5625" font-size="25" fill="#604A0E"/><text text-anchor="middle" pointer-events="none" y="5" font-size="10px" fill="#604A0E" font-family="sans-serif"> http://s…</text></g><g class="node" transform="translate(11.766377790943409,39.19899032711828)"><circle class="outline" cx="0" cy="0" r="25" fill="#D9C8AE" stroke="#c0a378" stroke-width="2px"/><text text-anchor="middle" pointer-events="none" font-family="sans-serif" dy="1.5625" font-size="25" fill="#604A0E"/><text text-anchor="middle" pointer-events="none" y="5" font-size="10px" fill="#604A0E" font-family="sans-serif"> http://s…</text></g></g></svg>